# Blender v2.74 (sub 0) OBJ File: ''
# www.blender.org
mtllib minecraft-steve.mtl
o Steve_RLeg
v -0.521593 3.497354 0.000451
v -0.521593 3.497354 1.136699
v 0.521593 3.497354 1.136699
v 0.521592 3.497354 0.000451
v -0.521593 0.502646 0.000451
v -0.521592 0.502646 1.136699
v 0.521593 0.502646 0.000451
v 0.521593 0.502646 1.136698
vt 0.124564 0.372844
vt 0.123284 0.495731
vt 0.062259 0.497328
vt 0.063538 0.374441
vt 0.250211 0.370491
vt 0.250211 0.001371
vt 0.190639 -0.001314
vt 0.190639 0.367806
vt 0.000807 0.009620
vt 0.000807 0.377727
vt 0.059514 0.377727
vt 0.059514 0.009620
vt 0.000878 0.373364
vt 0.000878 0.010074
vt 0.062985 0.010074
vt 0.062985 0.373364
vt 0.065586 0.375905
vt 0.065375 0.003473
vt 0.124947 0.003338
vt 0.125158 0.375770
vt 0.179068 0.489942
vt 0.130391 0.486732
vt 0.129081 0.397994
vt 0.177758 0.401205
usemtl Steve
vn -0.577300 0.577300 -0.577300
vn -0.577300 0.577300 0.577300
vn 0.577300 0.577300 0.577300
vn 0.577300 0.577300 -0.577300
vn -0.577300 -0.577300 -0.577300
vn -0.577300 -0.577300 0.577300
vn 0.577300 -0.577300 -0.577300
vn 0.577300 -0.577300 0.577300
s 1
f 1/1/1 2/2/2 3/3/3 4/4/4
f 1/5/1 5/6/5 6/7/6 2/8/2
f 5/9/5 1/10/1 4/11/4 7/12/7
f 2/13/2 6/14/6 8/15/8 3/16/3
f 3/17/3 8/18/8 7/19/7 4/20/4
f 5/21/5 7/22/7 8/23/8 6/24/6
usemtl Steve